<svg width="100" height="15" viewBox="0 0 100 15" fill="none" xmlns="http://www.w3.org/2000/svg">
<path d="M5.96332 15C4.91221 15 3.96499 14.8166 3.12166 14.45C2.27833 14.0833 1.585 13.5586 1.04167 12.8758C0.498334 12.193 0.151112 11.38 -1.49012e-08 10.4366L2.50663 10.06C2.71663 10.9133 3.1533 11.5739 3.81663 12.0416C4.47997 12.5094 5.24553 12.7433 6.11332 12.7433C6.62555 12.7433 7.10889 12.6628 7.56334 12.5016C8.01779 12.3405 8.3864 12.1058 8.66918 11.7975C8.95196 11.4891 9.09335 11.1144 9.09335 10.6733C9.09335 10.47 9.06029 10.2841 8.99418 10.1158C8.92806 9.94744 8.83028 9.79632 8.70084 9.66243C8.57139 9.52854 8.40527 9.40715 8.20249 9.29826C7.99971 9.18937 7.76221 9.09326 7.48999 9.00993L3.77333 7.91326C3.45332 7.82104 3.10776 7.69548 2.73665 7.53659C2.36554 7.3777 2.01554 7.16104 1.68666 6.88659C1.35777 6.61215 1.08777 6.25965 0.876663 5.82909C0.665554 5.39854 0.56 4.86549 0.56 4.22994C0.56 3.30217 0.795832 2.52412 1.2675 1.89578C1.73916 1.26745 2.37277 0.795785 3.16832 0.480784C3.96388 0.165784 4.84999 0.0110616 5.82665 0.0166175C6.8111 0.0277286 7.69054 0.198284 8.46498 0.528284C9.23943 0.858285 9.88582 1.33551 10.4041 1.95995C10.9225 2.5844 11.2889 3.34217 11.5033 4.23328L8.91335 4.67661C8.80891 4.17105 8.60391 3.74077 8.29835 3.38576C7.99279 3.03076 7.62195 2.75937 7.18584 2.57159C6.74972 2.38381 6.28555 2.28436 5.79332 2.27325C5.3122 2.26214 4.8672 2.33242 4.4583 2.48409C4.04941 2.63576 3.71969 2.85104 3.46913 3.12993C3.21857 3.40882 3.09329 3.73549 3.09329 4.10994C3.09329 4.46661 3.19968 4.75551 3.41246 4.97662C3.62524 5.19774 3.89108 5.37413 4.20997 5.50579C4.52886 5.63746 4.84998 5.74663 5.17331 5.8333L7.75332 6.54997C8.10665 6.64552 8.50276 6.7733 8.94165 6.9333C9.38054 7.0933 9.80331 7.31636 10.21 7.60247C10.6166 7.88858 10.9522 8.26524 11.2166 8.73246C11.4811 9.19969 11.6133 9.79107 11.6133 10.5066C11.6133 11.2544 11.4591 11.9102 11.1508 12.4741C10.8425 13.038 10.4239 13.5063 9.89498 13.8791C9.3661 14.2519 8.76304 14.5319 8.08582 14.7191C7.4086 14.9063 6.7011 15 5.96332 15ZM16.8067 15C16.0222 15 15.3603 14.8519 14.8208 14.5558C14.2814 14.2597 13.8736 13.8647 13.5975 13.3708C13.3214 12.8769 13.1833 12.3333 13.1833 11.74C13.1833 11.2177 13.2703 10.7497 13.4442 10.3358C13.6181 9.92189 13.8853 9.56301 14.2458 9.25912C14.6064 8.95523 15.0711 8.70551 15.64 8.50996C16.0778 8.36662 16.587 8.23968 17.1675 8.12912C17.7481 8.01857 18.3806 7.91468 19.065 7.81746C19.7495 7.72024 20.4667 7.61552 21.2167 7.5033L20.35 7.98662C20.3556 7.24106 20.1892 6.69132 19.8509 6.33743C19.5125 5.98353 18.9389 5.80658 18.13 5.80658C17.6455 5.80658 17.1769 5.92075 16.7241 6.14909C16.2714 6.37743 15.9544 6.7666 15.7733 7.31661L13.57 6.62662C13.8378 5.71551 14.3475 4.98328 15.0992 4.42995C15.8508 3.87662 16.8633 3.59995 18.1367 3.59995C19.0978 3.59995 19.9422 3.75606 20.67 4.06829C21.3978 4.38051 21.94 4.8944 22.2967 5.60996C22.49 5.98773 22.6067 6.37495 22.6467 6.77162C22.6867 7.16829 22.7067 7.60217 22.7067 8.07328V14.7H20.5934V12.3566L20.9434 12.7433C20.4567 13.5199 19.8881 14.0902 19.2375 14.4541C18.587 14.818 17.7767 15 16.8067 15ZM17.2833 13.0766C17.83 13.0766 18.2961 12.9797 18.6817 12.7858C19.0672 12.5919 19.3756 12.3564 19.6067 12.0791C19.8378 11.8019 19.9923 11.5377 20.07 11.2866C20.1956 10.9799 20.2681 10.6285 20.2875 10.2324C20.307 9.83632 20.3167 9.51438 20.3167 9.2666L21.0567 9.48994C20.3256 9.6066 19.6998 9.70715 19.1792 9.7916C18.6586 9.87604 18.2128 9.95632 17.8417 10.0324C17.4706 10.1085 17.1411 10.1944 16.8533 10.2899C16.5767 10.3922 16.3414 10.5091 16.1475 10.6408C15.9536 10.7724 15.805 10.9255 15.7016 11.0999C15.5983 11.2744 15.5466 11.4777 15.5466 11.71C15.5466 11.9733 15.6125 12.208 15.7441 12.4141C15.8758 12.6202 16.0703 12.7822 16.3275 12.9C16.5847 13.0178 16.9033 13.0766 17.2833 13.0766ZM26.2467 14.7V3.72993C26.2467 3.45548 26.2553 3.15409 26.2725 2.82576C26.2897 2.49743 26.3464 2.16938 26.4425 1.8416C26.5386 1.51383 26.7089 1.2155 26.9533 0.946611C27.2578 0.607726 27.5889 0.373006 27.9467 0.242451C28.3044 0.111897 28.6561 0.0388421 29.0017 0.0232861C29.3472 0.00772929 29.6522 -4.91142e-05 29.9167 -4.91142e-05H31.2667V1.95992H30.0167C29.5566 1.95992 29.2144 2.0752 28.99 2.30576C28.7655 2.53632 28.6533 2.83771 28.6533 3.20994V14.7H26.2467ZM24.5033 5.78993V3.89995H31.2667V5.78993H24.5033ZM37.37 15C36.2778 15 35.3189 14.763 34.4933 14.2891C33.6678 13.8152 33.0231 13.1586 32.5592 12.3191C32.0953 11.4797 31.8633 10.5122 31.8633 9.41662C31.8633 8.23662 32.0908 7.21162 32.5458 6.34162C33.0008 5.47162 33.6314 4.79717 34.4375 4.31828C35.2436 3.8394 36.1767 3.59995 37.2367 3.59995C38.3533 3.59995 39.3033 3.86106 40.0867 4.38328C40.87 4.9055 41.4525 5.64328 41.8342 6.59661C42.2158 7.54994 42.3594 8.6755 42.265 9.97327H39.8734V9.09329C39.8667 7.91772 39.66 7.05938 39.2533 6.51826C38.8467 5.97715 38.2078 5.70659 37.3367 5.70659C36.3511 5.70659 35.6175 6.01215 35.1358 6.62326C34.6541 7.23438 34.4133 8.12661 34.4133 9.29995C34.4133 10.3955 34.6541 11.2433 35.1358 11.8433C35.6175 12.4433 36.3178 12.7433 37.2367 12.7433C37.83 12.7433 38.3411 12.6111 38.77 12.3466C39.1989 12.0822 39.53 11.7011 39.7634 11.2033L42.1467 11.92C41.7344 12.8955 41.0958 13.6527 40.2308 14.1916C39.3658 14.7305 38.4122 15 37.37 15ZM33.6533 9.97327V8.14996H41.0867V9.97327H33.6533ZM44.5033 14.7V0.299951H46.91V6.3633H53.73V0.299951H56.1366V14.7H53.73V8.61993H46.91V14.7H44.5033ZM63.7067 15C62.6233 15 61.6789 14.7566 60.8733 14.27C60.0678 13.7833 59.4431 13.1113 58.9992 12.2541C58.5553 11.3969 58.3333 10.4111 58.3333 9.29662C58.3333 8.16884 58.56 7.17689 59.0133 6.32078C59.4667 5.46467 60.0964 4.79717 60.9025 4.31828C61.7086 3.8394 62.6433 3.59995 63.7067 3.59995C64.7911 3.59995 65.7375 3.84301 66.5458 4.32912C67.3542 4.81523 67.9814 5.48634 68.4275 6.34245C68.8736 7.19856 69.0966 8.18328 69.0966 9.29662C69.0966 10.42 68.8719 11.41 68.4225 12.2666C67.973 13.1233 67.3439 13.793 66.535 14.2758C65.7261 14.7586 64.7833 15 63.7067 15ZM63.7067 12.7433C64.6611 12.7433 65.3731 12.4222 65.8425 11.78C66.312 11.1377 66.5467 10.31 66.5467 9.29662C66.5467 8.25105 66.3089 7.41632 65.8333 6.79243C65.3578 6.16853 64.6489 5.85658 63.7067 5.85658C63.06 5.85658 62.5286 6.00214 62.1125 6.29325C61.6964 6.58437 61.3875 6.98771 61.1858 7.50327C60.9841 8.01883 60.8833 8.61661 60.8833 9.29662C60.8833 10.3466 61.1222 11.1836 61.6 11.8075C62.0778 12.4314 62.78 12.7433 63.7067 12.7433ZM84.2633 14.7L84.2667 8.14326C84.2667 7.39881 84.0825 6.81826 83.7142 6.40159C83.3458 5.98492 82.85 5.77658 82.2267 5.77658C81.8389 5.77658 81.4919 5.86631 81.1858 6.04575C80.8797 6.2252 80.6366 6.4852 80.4566 6.82576C80.2766 7.16631 80.1866 7.57549 80.1866 8.05327L79.1133 7.41995C79.1078 6.67106 79.2766 6.01162 79.62 5.44162C79.9633 4.87162 80.4275 4.42773 81.0125 4.10995C81.5975 3.79217 82.25 3.63328 82.97 3.63328C84.1677 3.63328 85.0844 3.99078 85.72 4.70578C86.3555 5.42078 86.6733 6.36328 86.6733 7.53328L86.67 14.7H84.2633ZM71.2767 14.7V3.89995H73.4066V7.24992H73.7V14.7H71.2767ZM77.78 14.7L77.7833 8.1666C77.7833 7.41659 77.6 6.83076 77.2333 6.40909C76.8667 5.98742 76.3678 5.77658 75.7367 5.77658C75.1244 5.77658 74.6319 5.98686 74.2591 6.40742C73.8864 6.82798 73.7 7.3766 73.7 8.05327L72.6266 7.33328C72.6266 6.62884 72.8 5.998 73.1466 5.44078C73.4933 4.88356 73.9611 4.44301 74.55 4.11912C75.1389 3.79523 75.8011 3.63328 76.5366 3.63328C77.3433 3.63328 78.0175 3.80467 78.5591 4.14745C79.1008 4.49022 79.5075 4.95661 79.7791 5.54661C80.0508 6.13661 80.1866 6.80216 80.1866 7.54328L80.1833 14.7H77.78ZM94.01 15C92.9178 15 91.9589 14.763 91.1333 14.2891C90.3078 13.8152 89.6631 13.1586 89.1992 12.3191C88.7353 11.4797 88.5033 10.5122 88.5033 9.41662C88.5033 8.23662 88.7308 7.21162 89.1858 6.34162C89.6408 5.47162 90.2714 4.79717 91.0775 4.31828C91.8836 3.8394 92.8167 3.59995 93.8767 3.59995C94.9933 3.59995 95.9433 3.86106 96.7267 4.38328C97.51 4.9055 98.0925 5.64328 98.4742 6.59661C98.8558 7.54994 98.9994 8.6755 98.905 9.97327H96.5134V9.09329C96.5067 7.91772 96.3 7.05938 95.8934 6.51826C95.4867 5.97715 94.8478 5.70659 93.9767 5.70659C92.9911 5.70659 92.2575 6.01215 91.7758 6.62326C91.2941 7.23438 91.0533 8.12661 91.0533 9.29995C91.0533 10.3955 91.2941 11.2433 91.7758 11.8433C92.2575 12.4433 92.9578 12.7433 93.8767 12.7433C94.47 12.7433 94.9811 12.6111 95.41 12.3466C95.8389 12.0822 96.17 11.7011 96.4034 11.2033L98.7867 11.92C98.3744 12.8955 97.7358 13.6527 96.8708 14.1916C96.0058 14.7305 95.0522 15 94.01 15ZM90.2933 9.97327V8.14996H97.7267V9.97327H90.2933Z" fill="white"/>
</svg>
